<?xml version="1.0" standalone="no"?>
<!DOCTYPE svg PUBLIC "-//W3C//DTD SVG 20010904//EN"
 "http://www.w3.org/TR/2001/REC-SVG-20010904/DTD/svg10.dtd">
<svg version="1.0" xmlns="http://www.w3.org/2000/svg"
 width="700.000000pt" height="700.000000pt" viewBox="0 0 700.000000 700.000000"
 preserveAspectRatio="xMidYMid meet">
<metadata>
Created by potrace 1.14, written by Peter Selinger 2001-2017
</metadata>
<g transform="translate(0.000000,700.000000) scale(0.100000,-0.100000)"
fill="#000000" stroke="none">
<path d="M0 3500 l0 -3500 3500 0 3500 0 0 3500 0 3500 -3500 0 -3500 0 0
-3500z m3983 1417 c75 -199 379 -1000 676 -1779 l538 -1418 -391 0 -391 0
-139 395 -139 395 -652 0 -653 0 -98 -277 c-54 -153 -116 -330 -139 -393 l-40
-115 -383 -3 -382 -2 13 32 c7 18 314 819 683 1781 l669 1747 345 0 345 0 138
-363z m-2263 126 c46 -43 469 -624 475 -655 10 -45 -19 -82 -145 -177 -139
-105 -160 -111 -214 -58 -19 17 -134 166 -255 330 -234 316 -242 332 -206 384
15 21 199 167 240 191 34 19 73 14 105 -15z m3666 1 c21 -15 76 -55 121 -90
154 -120 154 -117 -30 -366 -359 -486 -344 -468 -402 -468 -23 0 -39 11 -196
132 -80 61 -106 100 -94 140 4 13 114 166 243 340 269 362 275 368 358 312z
m-4226 -1104 c278 -94 516 -179 530 -189 48 -35 48 -57 0 -213 -49 -157 -75
-198 -127 -198 -15 0 -259 77 -540 171 -550 183 -553 184 -553 250 0 23 62
218 95 302 8 19 51 46 75 47 8 0 242 -77 520 -170z m5247 135 c12 -13 43 -89
69 -168 44 -133 47 -147 34 -176 -7 -17 -22 -37 -33 -43 -50 -26 -1022 -348
-1053 -348 -55 0 -76 30 -128 186 -25 76 -46 149 -46 161 0 12 11 34 24 49 19
23 104 55 537 200 362 122 523 172 544 169 17 -3 40 -16 52 -30z m-4934 -1165
c19 -15 37 -55 71 -158 25 -75 46 -151 46 -167 0 -45 -24 -71 -83 -93 -255
-96 -690 -242 -718 -242 -61 1 -73 18 -130 189 -44 131 -48 177 -19 209 12 12
22 22 23 22 1 0 164 58 362 129 198 71 374 129 391 130 18 1 43 -8 57 -19z
m4464 -104 c193 -68 364 -131 382 -140 30 -16 46 -49 43 -89 0 -10 -22 -81
-47 -158 -51 -151 -64 -169 -125 -169 -53 0 -761 254 -782 281 -27 32 -22 72
28 221 49 147 70 178 123 178 15 0 185 -56 378 -124z"/>
<path d="M3465 4324 c-38 -132 -144 -448 -261 -778 -68 -192 -124 -351 -124
-352 0 -2 183 -4 406 -4 361 0 405 2 400 15 -43 112 -213 602 -296 854 l-108
325 -17 -60z"/>
</g>
</svg>
