<svg id="Laag_1" data-name="Laag 1" xmlns="http://www.w3.org/2000/svg" viewBox="0 0 40 40"><defs><style>.cls-1{fill:#fff;}.cls-2{fill:#cf0039;}</style></defs><title>Tekengebied 1</title><circle class="cls-1" cx="20" cy="20" r="20"/><path class="cls-2" d="M16.86,15.3c-.48-1.4-1-2.84-1.2-3.73-.24.89-.72,2.33-1.2,3.73l-1.54,4.36H18.4Zm5.07,14.26-1.88-5.35H11.27L9.39,29.56H4.25l9.18-24h4.66l9.12,24Z"/><rect class="cls-2" x="27.66" y="14.55" width="8.34" height="3.03" rx="0.64" transform="matrix(0.95, -0.32, 0.32, 0.95, -3.46, 10.96)"/><path class="cls-2" d="M28.52,23.48a.64.64,0,0,0,.41.81L33.69,26a.64.64,0,0,0,.81-.41l.56-1.66a.64.64,0,0,0-.41-.81l-4.76-1.69a.63.63,0,0,0-.81.4Z"/><path class="cls-2" d="M29.83,8.18a.64.64,0,0,1,.12.9l-3,4.06a.65.65,0,0,1-.9.12l-1.39-1.07a.65.65,0,0,1-.11-.91l3-4a.65.65,0,0,1,.9-.12Z"/></svg>