<svg viewBox="0 0 40 40" xmlns="http://www.w3.org/2000/svg"><circle cx="20" cy="20" fill="#fff" r="20"/><g fill="#cf0039"><path d="m16.86 15.3c-.48-1.4-1-2.84-1.2-3.73-.24.89-.72 2.33-1.2 3.73l-1.54 4.36h5.48zm5.07 14.26-1.88-5.35h-8.78l-1.88 5.35h-5.14l9.18-24h4.66l9.12 24z"/><rect height="3.03" rx=".64" transform="matrix(.95 -.32 .32 .95 -3.46 10.96)" width="8.34" x="27.66" y="14.55"/><path d="m28.52 23.48a.64.64 0 0 0 .41.81l4.76 1.71a.64.64 0 0 0 .81-.41l.56-1.66a.64.64 0 0 0 -.41-.81l-4.76-1.69a.63.63 0 0 0 -.81.4z"/><path d="m29.83 8.18a.64.64 0 0 1 .12.9l-3 4.06a.65.65 0 0 1 -.9.12l-1.39-1.07a.65.65 0 0 1 -.11-.91l3-4a.65.65 0 0 1 .9-.12z"/></g></svg>