<?xml version="1.0" standalone="no"?>
<!DOCTYPE svg PUBLIC "-//W3C//DTD SVG 20010904//EN"
 "http://www.w3.org/TR/2001/REC-SVG-20010904/DTD/svg10.dtd">
<svg version="1.0" xmlns="http://www.w3.org/2000/svg"
 width="700.000000pt" height="700.000000pt" viewBox="0 0 700.000000 700.000000"
 preserveAspectRatio="xMidYMid meet">
<metadata>
Created by potrace 1.11, written by Peter Selinger 2001-2013
</metadata>
<g transform="translate(0.000000,700.000000) scale(0.100000,-0.100000)"
fill="#000000" stroke="none">
<path d="M3090 5549 c0 -8 -323 -855 -340 -894 -5 -11 -68 -175 -140 -365 -72
-190 -134 -354 -139 -365 -10 -21 -23 -56 -26 -65 0 -3 -10 -30 -22 -60 -12
-30 -48 -125 -81 -210 -82 -216 -166 -433 -222 -580 -27 -69 -84 -219 -128
-335 -44 -115 -137 -356 -205 -535 -69 -179 -155 -403 -191 -498 -36 -94 -66
-178 -66 -185 0 -10 87 -13 437 -12 l437 0 22 58 c13 32 55 149 94 260 114
321 161 451 167 467 3 8 15 42 27 74 l21 60 743 -1 c432 0 747 -4 752 -9 5 -5
32 -74 60 -154 29 -80 72 -201 97 -270 50 -139 81 -227 117 -327 13 -38 32
-88 41 -113 l16 -46 453 0 454 0 -13 36 c-7 19 -52 136 -100 260 -48 124 -91
236 -95 250 -5 14 -22 59 -38 100 -16 41 -55 143 -86 225 -32 83 -68 177 -81
210 -28 71 -93 241 -205 535 -88 230 -113 297 -165 430 -18 47 -54 141 -81
210 -26 69 -74 195 -107 280 -32 85 -69 182 -81 215 -13 33 -83 215 -155 405
-73 190 -164 426 -201 525 -83 220 -75 198 -124 325 l-41 105 -403 1 c-221 0
-402 -3 -402 -7z m425 -1146 c67 -217 240 -723 395 -1153 l38 -105 -466 -3
c-256 -1 -467 -1 -469 1 -1 2 13 48 33 103 19 54 50 142 69 194 18 52 65 187
105 300 121 346 217 637 240 733 7 26 14 47 16 47 2 0 19 -53 39 -117z"/>
<path d="M1320 5303 c-8 -3 -43 -28 -76 -53 -215 -164 -226 -177 -219 -243 3
-40 1 -36 175 -272 69 -93 179 -243 244 -331 136 -186 163 -207 234 -182 39
13 273 199 293 232 18 30 19 79 2 110 -5 9 -152 211 -176 241 -4 6 -80 109
-168 230 -89 121 -171 231 -184 244 -23 24 -94 37 -125 24z"/>
<path d="M5565 5300 c-28 -11 -49 -36 -151 -176 -49 -67 -154 -210 -234 -318
-198 -270 -202 -276 -184 -343 8 -30 262 -222 307 -233 70 -15 84 -2 282 259
55 73 156 206 223 294 68 89 130 173 136 187 26 52 9 107 -47 153 -73 59 -211
163 -234 175 -25 14 -69 15 -98 2z"/>
<path d="M170 4186 c-47 -16 -64 -44 -120 -201 -56 -160 -62 -213 -27 -248 32
-33 1163 -411 1230 -411 42 -1 52 3 76 29 15 17 39 67 55 110 15 44 38 108 50
142 32 84 29 138 -10 172 -22 19 -143 63 -464 169 -239 79 -444 148 -455 152
-28 12 -223 76 -266 88 -24 6 -46 6 -69 -2z"/>
<path d="M6710 4175 c-41 -13 -311 -102 -599 -198 -576 -193 -573 -191 -577
-269 -2 -55 93 -319 128 -355 50 -49 50 -49 668 156 316 105 586 197 600 205
39 22 63 61 62 99 -1 30 -59 205 -99 299 -34 79 -78 94 -183 63z"/>
<path d="M919 2783 c-85 -29 -206 -71 -269 -93 -449 -153 -463 -160 -476 -225
-9 -48 80 -338 116 -378 51 -57 33 -62 850 224 105 37 128 52 146 94 15 36 5
90 -51 258 -14 43 -25 83 -25 90 0 16 -57 76 -74 79 -47 6 -81 -1 -217 -49z"/>
<path d="M5842 2823 c-41 -20 -52 -42 -110 -207 -76 -221 -66 -247 118 -309
41 -14 167 -58 280 -97 486 -169 470 -165 517 -149 47 15 64 45 123 216 40
117 51 161 46 186 -6 31 -31 63 -63 81 -30 17 -844 296 -863 296 -8 0 -30 -8
-48 -17z"/>
</g>
</svg>
